<svg width="44" height="44" viewBox="0 0 44 44" fill="none" xmlns="http://www.w3.org/2000/svg">
<rect width="44" height="44" rx="11.9167" fill="#6E37EE"/>
<g clip-path="url(#clip0_18931_38)">
<path d="M38.4843 27.2589L35.5764 18.8535C35.0258 17.2352 33.5116 16.1288 31.7565 16.0297C30.1907 15.9306 28.7281 16.6407 27.885 17.8792C27.7989 17.9783 27.5924 18.3581 27.5924 18.3746L21.8798 29.9011L16.1327 18.3581C15.3584 16.8224 13.7238 15.9141 11.9687 16.0132C10.2136 16.1288 8.69941 17.2352 8.14879 18.837L5.24085 27.2589C4.69023 28.8277 5.18923 30.5451 6.49694 31.635C7.51214 32.4772 8.85427 32.8075 10.162 32.5432C11.4697 32.279 12.5709 31.4699 13.1388 30.2974L14.6874 27.1763L12.5881 22.9984L9.74902 28.7616C9.66299 28.9598 9.49092 29.0093 9.38768 29.0259C9.30164 29.0424 9.11237 29.0589 8.95751 28.9103C8.80265 28.7782 8.75103 28.58 8.80265 28.3818L11.7106 19.9765C11.8138 19.6957 12.0375 19.6132 12.2096 19.6132H12.2612C12.3817 19.6132 12.5365 19.6462 12.657 19.7618C12.6742 19.7783 12.6742 19.7948 12.6914 19.8113L19.5741 33.6496C20.0043 34.5083 20.8818 35.0533 21.8798 35.0533H21.897C22.895 35.0533 23.7898 34.5083 24.2199 33.6496L30.9822 19.9104C31.1198 19.6462 31.3435 19.6132 31.5156 19.6132C31.6877 19.6297 31.9113 19.6957 32.0146 19.9765L34.8881 28.3818C34.9569 28.5635 34.9397 28.7947 34.7677 28.9103C34.5956 29.0424 34.4235 29.0424 34.3375 29.0259C34.2515 29.0093 34.0794 28.9433 33.9762 28.7616L31.1543 23.048C31.137 23.0149 31.1198 22.9984 31.1026 22.9654L29.0206 27.1433L30.5864 30.2974C31.1715 31.4533 32.2555 32.279 33.5632 32.5432C33.8557 32.6093 34.1482 32.6258 34.4407 32.6258C35.4559 32.6258 36.4367 32.279 37.2282 31.6185C38.5532 30.5451 39.035 28.8277 38.4843 27.2589Z" fill="white"/>
<path d="M27.5065 17.0369C27.4033 17.1525 27.3173 17.2846 27.2312 17.4002C27.1108 17.5653 26.9387 17.8791 26.8699 18.0112L25.4417 20.9176L21.8627 14.5929L18.4042 20.868L16.976 18.0112C16.7867 17.6314 16.563 17.3011 16.2877 16.9874L20.1248 10.0517C20.4001 9.40766 21.0712 8.96179 21.8455 8.96179C22.4305 8.96179 22.964 9.22601 23.2909 9.62233C23.3253 9.65536 23.3425 9.68839 23.3597 9.7049C23.3769 9.72141 23.3941 9.73793 23.3941 9.75444C23.4285 9.78747 23.4457 9.83701 23.4629 9.87003C23.4629 9.88655 23.4974 9.91958 23.4974 9.91958L27.5065 17.0369Z" fill="#EEEEEE"/>
<path d="M9.73205 28.7781C9.6116 28.9598 9.49115 28.9928 9.37071 29.0259C9.25026 29.0424 9.11261 29.0424 8.95774 28.9268C8.80288 28.8112 8.73406 28.58 8.78568 28.4149L10.9537 22.1232C10.9881 22.0241 11.0054 21.9581 11.0742 21.8094H7.11662L5.20667 27.3084C4.67326 28.8277 5.17225 30.5121 6.41114 31.602C7.20265 32.2955 8.21785 32.6753 9.25026 32.6753C9.52557 32.6753 9.80088 32.6588 10.0762 32.5928C11.4011 32.3451 12.5023 31.5359 13.0874 30.3634L14.6704 27.2094L12.5884 22.9984L9.73205 28.7781Z" fill="url(#paint0_linear_18931_38)"/>
<path d="M38.5018 27.2917L36.6091 21.8092H32.6515C32.6515 21.8092 32.7203 22.0404 32.7547 22.1395L34.9056 28.4146C34.9572 28.5963 34.9056 28.7779 34.7679 28.91C34.6131 29.0421 34.4582 29.0421 34.3378 29.0256C34.2345 29.0091 34.0797 28.943 33.9936 28.7614L31.1029 22.9486L29.0209 27.1266L30.6039 30.3137C31.1889 31.4861 32.2902 32.2953 33.6151 32.543C33.8904 32.5925 34.1657 32.6256 34.441 32.6256C35.4906 32.6256 36.4886 32.2623 37.2801 31.5522C38.5362 30.4953 39.0352 28.8109 38.5018 27.2917Z" fill="url(#paint1_linear_18931_38)"/>
</g>
<defs>
<linearGradient id="paint0_linear_18931_38" x1="10.8428" y1="22.22" x2="9.16284" y2="32.1477" gradientUnits="userSpaceOnUse">
<stop stop-color="white"/>
<stop offset="1" stop-color="#EEEEEE"/>
</linearGradient>
<linearGradient id="paint1_linear_18931_38" x1="34.9793" y1="21.9863" x2="33.2933" y2="31.9489" gradientUnits="userSpaceOnUse">
<stop stop-color="white"/>
<stop offset="1" stop-color="#EEEEEE"/>
</linearGradient>
<clipPath id="clip0_18931_38">
<rect width="33.7081" height="26.0913" fill="white" transform="translate(5 8.96191)"/>
</clipPath>
</defs>
</svg>
