<svg width="160" height="22" viewBox="0 0 135 22" fill="none" xmlns="http://www.w3.org/2000/svg">
    <path
        d="M0.550049 16.3482C0.550049 17.1347 1.17463 17.7361 1.93801 17.7361C2.72451 17.7361 3.3491 17.1347 3.3491 16.3482V10.7269C3.3491 8.8532 4.4132 7.69656 5.96308 7.69656C7.51297 7.69656 8.43827 8.76067 8.43827 10.6575V16.3482C8.43827 17.1347 9.06285 17.7361 9.84936 17.7361C10.6127 17.7361 11.2373 17.1347 11.2373 16.3482V10.7269C11.2373 8.76067 12.3246 7.69656 13.8513 7.69656C15.4243 7.69656 16.3265 8.73753 16.3265 10.6807V16.3482C16.3265 17.1347 16.9511 17.7361 17.7376 17.7361C18.5241 17.7361 19.1255 17.1347 19.1255 16.3482V9.82477C19.1255 6.84066 17.5063 5.15198 14.846 5.15198C12.9954 5.15198 11.7 6.00788 10.7284 7.30331C10.0807 6.00788 8.83153 5.15198 7.07345 5.15198C5.1997 5.15198 4.1356 6.16981 3.3491 7.25705V6.67873C3.3491 5.89222 2.72451 5.26764 1.93801 5.26764C1.1515 5.26764 0.550049 5.89222 0.550049 6.67873V16.3482Z"
        fill="#6E37EE" />
    <path
        d="M23.479 10.6575C23.7334 8.76067 24.9363 7.44211 26.6482 7.44211C28.4988 7.44211 29.5629 8.8532 29.7479 10.6575H23.479ZM31.3672 16.2788C31.5754 16.0706 31.7373 15.7698 31.7373 15.4229C31.7373 14.7751 31.2515 14.2894 30.627 14.2894C30.3031 14.2894 30.1181 14.3819 29.9099 14.5438C29.1234 15.1915 28.198 15.6079 27.0183 15.6079C25.2139 15.6079 23.8028 14.4976 23.5021 12.5081H31.159C31.8761 12.5081 32.4776 11.953 32.4776 11.1665C32.4776 8.34428 30.5576 5.15198 26.6713 5.15198C23.1783 5.15198 20.7031 8.02042 20.7031 11.5134V11.5597C20.7031 15.3303 23.4327 17.898 26.972 17.898C28.8689 17.898 30.2568 17.2735 31.3672 16.2788Z"
        fill="#6E37EE" />
    <path
        d="M34.1782 16.3482C34.1782 17.1347 34.8028 17.7361 35.5661 17.7361C36.3527 17.7361 36.9772 17.1115 36.9772 16.3482V12.7395C36.9772 9.8479 38.3421 8.32115 40.3315 7.97416C40.956 7.85849 41.4418 7.37271 41.4418 6.63247C41.4418 5.82282 40.9329 5.24451 40.0539 5.24451C38.8278 5.24451 37.6249 6.40114 36.9772 7.92789V6.67873C36.9772 5.89222 36.3527 5.26764 35.5661 5.26764C34.7796 5.26764 34.1782 5.89222 34.1782 6.67873V16.3482Z"
        fill="#6E37EE" />
    <path
        d="M47.815 17.898C49.8507 17.898 51.1693 17.2041 52.2565 16.1631C52.511 15.9549 52.6498 15.6542 52.6498 15.2841C52.6498 14.6132 52.1177 14.058 51.4469 14.058C51.123 14.058 50.8454 14.22 50.6835 14.3588C49.9201 15.0065 49.0642 15.446 47.9538 15.446C45.8025 15.446 44.2989 13.711 44.2989 11.5366V11.4903C44.2989 9.36211 45.8025 7.60403 47.8382 7.60403C48.9485 7.60403 49.7351 8.04355 50.4522 8.645C50.6372 8.7838 50.9379 8.92259 51.2849 8.92259C52.002 8.92259 52.5804 8.36741 52.5804 7.6503C52.5804 7.18765 52.3259 6.84066 52.1408 6.67873C51.0999 5.77656 49.7813 5.15198 47.8613 5.15198C44.1832 5.15198 41.4998 8.06669 41.4998 11.5366V11.5828C41.4998 15.0527 44.1832 17.898 47.815 17.898Z"
        fill="#6E37EE" />
    <path
        d="M65.0787 6.67873C65.0787 5.89222 64.431 5.26764 63.6676 5.26764C62.8811 5.26764 62.2565 5.89222 62.2565 6.67873V12.3C62.2565 14.1968 61.123 15.3072 59.5037 15.3072C57.8382 15.3072 56.8897 14.2431 56.8897 12.3462V6.67873C56.8897 5.89222 56.2651 5.26764 55.4786 5.26764C54.7152 5.26764 54.0907 5.89222 54.0907 6.67873V13.179C54.0907 16.0243 55.6868 17.8749 58.4396 17.8749C60.3365 17.8749 61.47 16.8802 62.2565 15.7236V16.3482C62.2565 17.1347 62.9042 17.7361 63.6676 17.7361C64.4541 17.7361 65.0787 17.1115 65.0787 16.3482V6.67873Z"
        fill="#6E37EE" />
    <path
        d="M67.4178 16.3482C67.4178 17.1347 68.0423 17.7361 68.8057 17.7361C69.5922 17.7361 70.2168 17.1115 70.2168 16.3482V12.7395C70.2168 9.8479 71.5816 8.32115 73.571 7.97416C74.1956 7.85849 74.6814 7.37271 74.6814 6.63247C74.6814 5.82282 74.1725 5.24451 73.2935 5.24451C72.0674 5.24451 70.8645 6.40114 70.2168 7.92789V6.67873C70.2168 5.89222 69.5922 5.26764 68.8057 5.26764C68.0192 5.26764 67.4178 5.89222 67.4178 6.67873V16.3482Z"
        fill="#6E37EE" />
    <path
        d="M78.0376 21.3911C80.0039 21.3911 81.1143 20.4658 82.1552 17.9674L86.6198 7.25705C86.6661 7.11825 86.7355 6.81753 86.7355 6.5862C86.7355 5.84596 86.134 5.26764 85.3938 5.26764C84.6767 5.26764 84.2834 5.75343 84.0521 6.33174L80.9986 14.4513L77.7138 6.33174C77.4593 5.68403 77.0661 5.26764 76.349 5.26764C75.5624 5.26764 74.961 5.84596 74.961 6.63247C74.961 6.81753 75.0304 7.09512 75.1229 7.30331L79.6569 17.4354L79.5644 17.6899C79.1017 18.6383 78.6622 18.9853 77.8294 18.9853C77.4362 18.9853 77.1817 18.9159 76.8579 18.8234C76.7191 18.7771 76.5803 18.7308 76.349 18.7308C75.7475 18.7308 75.2155 19.1935 75.2155 19.8875C75.2155 20.5583 75.6781 20.9053 76.0945 21.0441C76.6728 21.2754 77.2511 21.3911 78.0376 21.3911Z"
        fill="#6E37EE" />
    <path
        d="M94.5878 17.8891C96.6235 17.8891 97.942 17.1951 99.0293 16.1541C99.2837 15.9459 99.4225 15.6452 99.4225 15.2751C99.4225 14.6042 98.8905 14.0491 98.2196 14.0491C97.8958 14.0491 97.6182 14.211 97.4562 14.3498C96.6929 14.9975 95.837 15.437 94.7266 15.437C92.5753 15.437 91.0716 13.7021 91.0716 11.5276V11.4813C91.0716 9.35314 92.5753 7.59506 94.6109 7.59506C95.7213 7.59506 96.5078 8.03458 97.2249 8.63603C97.41 8.77482 97.7107 8.91362 98.0577 8.91362C98.7748 8.91362 99.3531 8.35844 99.3531 7.64132C99.3531 7.17867 99.0986 6.83168 98.9136 6.66975C97.8726 5.76758 96.5541 5.143 94.6341 5.143C90.956 5.143 88.2726 8.05771 88.2726 11.5276V11.5739C88.2726 15.0438 90.956 17.8891 94.5878 17.8891Z"
        fill="#84808E" />
    <path
        d="M104.518 17.8659C106.392 17.8659 107.664 17.0794 108.497 16.0847V16.5474C108.497 17.172 109.052 17.7271 109.862 17.7271C110.625 17.7271 111.227 17.1488 111.227 16.3855V10.371C111.227 8.77482 110.81 7.4794 109.908 6.60036C109.052 5.72132 107.688 5.23553 105.86 5.23553C104.264 5.23553 103.084 5.51312 101.928 5.95264C101.511 6.11457 101.164 6.55409 101.164 7.06301C101.164 7.71072 101.696 8.21964 102.344 8.21964C102.483 8.21964 102.621 8.19651 102.783 8.15024C103.547 7.84952 104.426 7.66446 105.49 7.66446C107.456 7.66446 108.52 8.58976 108.52 10.3247V10.6254C107.572 10.3247 106.6 10.1165 105.235 10.1165C102.251 10.1165 100.193 11.4119 100.193 14.0491V14.0953C100.193 16.5474 102.228 17.8659 104.518 17.8659ZM105.305 15.8303C103.963 15.8303 102.922 15.1594 102.922 13.9797V13.9334C102.922 12.6611 103.986 11.8977 105.791 11.8977C106.901 11.8977 107.849 12.1059 108.567 12.3835V13.2163C108.567 14.7662 107.155 15.8303 105.305 15.8303Z"
        fill="#84808E" />
    <path
        d="M117.609 17.8428C120.154 17.8428 122.143 16.5705 122.143 14.0028V13.9565C122.143 11.7589 120.131 10.9493 118.35 10.3941C116.915 9.93145 115.597 9.56133 115.597 8.65916V8.61289C115.597 7.91891 116.221 7.41 117.309 7.41C118.165 7.41 119.182 7.73385 120.177 8.24277C120.362 8.3353 120.501 8.38157 120.732 8.38157C121.38 8.38157 121.889 7.89578 121.889 7.24807C121.889 6.76228 121.611 6.39216 121.218 6.18397C120.038 5.55939 118.674 5.18927 117.378 5.18927C114.949 5.18927 113.029 6.60036 113.029 8.91362V8.95988C113.029 11.2963 115.042 12.0365 116.846 12.5454C118.28 12.985 119.576 13.3088 119.576 14.2573V14.3035C119.576 15.1132 118.882 15.6221 117.679 15.6221C116.568 15.6221 115.342 15.2288 114.163 14.4423C114.001 14.3498 113.793 14.2804 113.561 14.2804C112.914 14.2804 112.428 14.7893 112.428 15.4139C112.428 15.8765 112.659 16.2235 112.96 16.3855C114.371 17.357 116.06 17.8428 117.609 17.8428Z"
        fill="#84808E" />
    <path
        d="M123.855 16.3392C123.855 17.1257 124.479 17.7271 125.243 17.7271C126.029 17.7271 126.654 17.1257 126.654 16.3392V10.718C126.654 8.82109 127.787 7.68759 129.407 7.68759C131.072 7.68759 132.021 8.77482 132.021 10.6717V16.3392C132.021 17.1257 132.645 17.7271 133.432 17.7271C134.218 17.7271 134.82 17.1257 134.82 16.3392V9.81579C134.82 6.99361 133.223 5.143 130.471 5.143C128.574 5.143 127.44 6.1377 126.654 7.2712V1.99697C126.654 1.23359 126.029 0.609009 125.243 0.609009C124.456 0.609009 123.855 1.23359 123.855 1.99697V16.3392Z"
        fill="#84808E" />
</svg>