<svg width="24" height="24" aria-label="IconEye" class="icon"><svg viewBox="0 0 25 16" fill="none" xmlns="http://www.w3.org/2000/svg"><path d="M12.933 15.187c7.17 0 11.99-5.782 11.99-7.572S20.086.052 12.934.052C5.867.052.923 5.825.923 7.615s4.927 7.572 12.01 7.572Zm0-1.712c-5.572 0-9.983-4.637-9.983-5.86 0-1.022 4.41-5.851 9.983-5.851 5.545 0 9.965 4.83 9.965 5.851 0 1.223-4.42 5.86-9.965 5.86Zm0-1.17c2.602 0 4.69-2.14 4.69-4.69a4.661 4.661 0 0 0-4.69-4.681c-2.62 0-4.717 2.07-4.708 4.681.018 2.55 2.088 4.69 4.708 4.69Zm-.01-3.179c-.838 0-1.519-.681-1.519-1.51 0-.83.681-1.512 1.52-1.512.838 0 1.52.681 1.52 1.511 0 .83-.682 1.511-1.52 1.511Z" fill="#595959"></path></svg></svg>